<svg width="16" height="16" viewBox="0 0 16 16" fill="none" xmlns="http://www.w3.org/2000/svg">
<g clip-path="url(#clip0_922_22391)">
<path d="M12 5.3335C12 7.74216 9.42067 10.2862 8.40467 11.1968C8.28844 11.2856 8.14625 11.3337 8 11.3337C7.85375 11.3337 7.71156 11.2856 7.59533 11.1968C6.58 10.2862 4 7.74216 4 5.3335C4 4.27263 4.42143 3.25521 5.17157 2.50507C5.92172 1.75492 6.93913 1.3335 8 1.3335C9.06087 1.3335 10.0783 1.75492 10.8284 2.50507C11.5786 3.25521 12 4.27263 12 5.3335Z" stroke="#333333" stroke-linecap="round" stroke-linejoin="round"/>
<path d="M7.99984 6.66667C8.73622 6.66667 9.33317 6.06971 9.33317 5.33333C9.33317 4.59695 8.73622 4 7.99984 4C7.26346 4 6.6665 4.59695 6.6665 5.33333C6.6665 6.06971 7.26346 6.66667 7.99984 6.66667Z" stroke="#333333" stroke-linecap="round" stroke-linejoin="round"/>
<path d="M5.80921 9.3335H3.33588C3.1961 9.33356 3.05987 9.37755 2.94646 9.45926C2.83305 9.54097 2.74819 9.65626 2.70388 9.78883L1.36788 13.7888C1.33439 13.889 1.32519 13.9958 1.34105 14.1002C1.35691 14.2047 1.39737 14.3039 1.45909 14.3896C1.52082 14.4754 1.60204 14.5452 1.69607 14.5934C1.79009 14.6416 1.89422 14.6668 1.99988 14.6668H13.9999C14.1055 14.6667 14.2095 14.6416 14.3035 14.5934C14.3974 14.5453 14.4786 14.4755 14.5403 14.3898C14.602 14.3042 14.6425 14.2051 14.6584 14.1007C14.6743 13.9963 14.6652 13.8897 14.6319 13.7895L13.2985 9.7895C13.2543 9.65669 13.1694 9.54118 13.0558 9.45933C12.9423 9.37749 12.8059 9.33346 12.6659 9.3335H10.1912" stroke="#333333" stroke-linecap="round" stroke-linejoin="round"/>
</g>
<defs>
<clipPath id="clip0_922_22391">
<rect width="16" height="16" fill="white"/>
</clipPath>
</defs>
</svg>
