<svg width="24" height="24" viewBox="0 0 24 24" fill="none" xmlns="http://www.w3.org/2000/svg">
<path d="M16.6173 15.9027C16.4102 15.6952 16.1292 15.5786 15.836 15.5786H15.5237C15.4382 15.5786 15.3561 15.5455 15.2946 15.4862C15.1687 15.3648 15.1601 15.1667 15.2685 15.0294C16.27 13.7612 16.8656 12.1626 16.8656 10.4328C16.8656 6.32762 13.538 3 9.43282 3C5.32762 3 2 6.32762 2 10.4328C2 14.538 5.32762 17.8656 9.43282 17.8656C11.1626 17.8656 12.7612 17.27 14.0294 16.2685C14.1667 16.1601 14.3648 16.1687 14.4862 16.2946C14.5455 16.3561 14.5786 16.4382 14.5786 16.5237V16.836C14.5786 17.1292 14.6952 17.4102 14.9027 17.6173L19.4434 22.1489C19.9145 22.6191 20.6774 22.6187 21.1481 22.1481C21.6187 21.6774 21.6191 20.9145 21.1489 20.4434L16.6173 15.9027ZM9.43282 15.5786C6.58548 15.5786 4.28702 13.2802 4.28702 10.4328C4.28702 7.58548 6.58548 5.28702 9.43282 5.28702C12.2802 5.28702 14.5786 7.58548 14.5786 10.4328C14.5786 13.2802 12.2802 15.5786 9.43282 15.5786Z" fill="#333333"/>
</svg>
