<svg width="24" height="24" viewBox="0 0 24 24" fill="none" xmlns="http://www.w3.org/2000/svg">
<path d="M6 17V8.81818C6 7.00989 6.63214 5.27566 7.75736 3.997C8.88258 2.71834 10.4087 2 12 2C13.5913 2 15.1174 2.71834 16.2426 3.997C17.3679 5.27566 18 7.00989 18 8.81818V17" stroke="#333333" stroke-width="2" stroke-linecap="round" stroke-linejoin="round"/>
<path d="M3 20.75C3 21.0815 3.13546 21.3995 3.37658 21.6339C3.6177 21.8683 3.94472 22 4.28571 22H19.7143C20.0553 22 20.3823 21.8683 20.6234 21.6339C20.8645 21.3995 21 21.0815 21 20.75V19.5C21 18.837 20.7291 18.2011 20.2468 17.7322C19.7646 17.2634 19.1106 17 18.4286 17H5.57143C4.88944 17 4.23539 17.2634 3.75315 17.7322C3.27092 18.2011 3 18.837 3 19.5V20.75Z" stroke="#333333" stroke-width="2" stroke-linecap="round" stroke-linejoin="round"/>
</svg>
