<svg width="24" height="24" viewBox="0 0 24 24" fill="none" xmlns="http://www.w3.org/2000/svg">
<path d="M22.2697 4.59045H1.73047V22.1705H22.2697V4.59045Z" fill="#E9EAEB"/>
<path d="M22.2698 4.59045H19.6621V22.1705H22.2698V4.59045Z" fill="#B9BBC1"/>
<path d="M22.3414 4.59033H1.65869V1.70443C1.65869 1.47385 1.84558 1.28696 2.07616 1.28696H21.924C22.1546 1.28696 22.3414 1.47385 22.3414 1.70443V4.59033Z" fill="#FDC74F"/>
<path d="M21.9241 1.28696H19.7339V3.45947H22.3415V1.70443C22.3415 1.47389 22.1547 1.28696 21.9241 1.28696Z" fill="#FCA629"/>
<path d="M1.7302 9.82356C0.784914 9.82356 0.0185547 9.05725 0.0185547 8.11197V6.71753H3.44179V8.11197C3.44184 9.05725 2.67548 9.82356 1.7302 9.82356Z" fill="#E60D28"/>
<path d="M5.15354 9.82356C4.20825 9.82356 3.44189 9.05725 3.44189 8.11197V6.71753H6.86513V8.11197C6.86518 9.05725 6.09882 9.82356 5.15354 9.82356Z" fill="#F2F2F2"/>
<path d="M8.57687 9.82356C7.63159 9.82356 6.86523 9.05725 6.86523 8.11197V6.71753H10.2885V8.11197C10.2885 9.05725 9.52216 9.82356 8.57687 9.82356Z" fill="#E60D28"/>
<path d="M12.0002 9.82356C11.0549 9.82356 10.2886 9.05725 10.2886 8.11197V6.71753H13.7118V8.11197C13.7118 9.05725 12.9455 9.82356 12.0002 9.82356Z" fill="#F2F2F2"/>
<path d="M15.4231 9.82356C14.4778 9.82356 13.7114 9.05725 13.7114 8.11197V6.71753H17.1347V8.11197C17.1347 9.05725 16.3683 9.82356 15.4231 9.82356Z" fill="#E60D28"/>
<path d="M18.8464 9.82356C17.9011 9.82356 17.1348 9.05725 17.1348 8.11197V6.71753H20.558V8.11197C20.558 9.05725 19.7917 9.82356 18.8464 9.82356Z" fill="#F2F2F2"/>
<path d="M22.2697 9.82356C21.3245 9.82356 20.5581 9.05725 20.5581 8.11197V6.71753H23.9813V8.11197C23.9814 9.05725 23.215 9.82356 22.2697 9.82356Z" fill="#E60D28"/>
<path d="M3.44179 6.71747H0.0185547L1.65679 3.45947H4.61198L3.44179 6.71747Z" fill="#FC502A"/>
<path d="M6.86513 6.71747H3.44189L4.61208 3.45947H7.56722L6.86513 6.71747Z" fill="white"/>
<path d="M10.2885 6.71747H6.86523L7.56733 3.45947H10.5225L10.2885 6.71747Z" fill="#FC502A"/>
<path d="M13.7118 6.71747H10.2886L10.5226 3.45947H13.4778L13.7118 6.71747Z" fill="white"/>
<path d="M17.1348 6.71747H13.7115L13.4775 3.45947H16.4327L17.1348 6.71747Z" fill="#FC502A"/>
<path d="M20.5579 6.71747H17.1347L16.4326 3.45947H19.3878L20.5579 6.71747Z" fill="white"/>
<path d="M23.9811 6.71747H20.5578L19.3877 3.45947H22.3429L23.9811 6.71747Z" fill="#FC502A"/>
<path d="M23.2183 20.5641H0.781734C0.350016 20.5641 0 20.9141 0 21.3459V22.4915C0 22.6139 0.0992344 22.713 0.221578 22.713H23.7784C23.9008 22.713 24 22.6138 24 22.4915V21.3459C24 20.9141 23.65 20.5641 23.2183 20.5641Z" fill="#8B8996"/>
<path d="M23.2182 20.5641H21.3843V22.713H23.7784C23.9008 22.713 23.9999 22.6139 23.9999 22.4915V21.3459C23.9999 20.9141 23.6499 20.5641 23.2182 20.5641Z" fill="#706F7F"/>
<path d="M20.2469 18.2666H9.70406C9.53203 18.2666 9.39258 18.1271 9.39258 17.9551V12.1538C9.39258 11.9818 9.53203 11.8423 9.70406 11.8423H20.2469C20.4189 11.8423 20.5583 11.9818 20.5583 12.1538V17.9551C20.5583 18.1271 20.4189 18.2666 20.2469 18.2666Z" fill="#00C6C8"/>
<path d="M20.2466 11.8423H17.9424V18.2666H20.2466C20.4186 18.2666 20.5581 18.1271 20.5581 17.9551V12.1538C20.5581 11.9818 20.4186 11.8423 20.2466 11.8423Z" fill="#0FB0C0"/>
<path d="M7.91169 20.5642H3.10156V12.1538C3.10156 11.9818 3.24102 11.8423 3.41305 11.8423H7.6002C7.77223 11.8423 7.91169 11.9818 7.91169 12.1538V20.5642Z" fill="#00C6C8"/>
<path d="M7.60013 11.8423H5.2959V20.5642H7.91157V12.1538C7.91162 11.9818 7.77216 11.8423 7.60013 11.8423Z" fill="#0FB0C0"/>
<path d="M6.56723 16.7688C6.76725 16.7688 6.92939 16.6067 6.92939 16.4067V15.7548C6.92939 15.5548 6.76725 15.3926 6.56723 15.3926C6.36722 15.3926 6.20508 15.5548 6.20508 15.7548V16.4067C6.20503 16.6067 6.36722 16.7688 6.56723 16.7688Z" fill="white"/>
</svg>
