<svg width="48" height="48" viewBox="0 0 48 48" fill="none" xmlns="http://www.w3.org/2000/svg">
<path d="M24 48C10.8 48 0 37.2 0 24C0 10.8 10.8 0 24 0C37.2 0 48 10.8 48 24C48 37.2 37.2 48 24 48Z" fill="#FEE500"/>
<path d="M24.4932 15C19.238 15 15 18.4749 15 22.6934C15 25.4317 16.763 27.8293 19.4076 29.1985L18.5125 32.6248C18.4956 32.6761 18.493 32.7312 18.505 32.784C18.517 32.8368 18.543 32.8851 18.5803 32.9236C18.6346 32.9727 18.7045 32.9998 18.7769 33C18.837 32.9951 18.894 32.9707 18.9397 32.9305L22.7912 30.2688C23.3598 30.3492 23.9329 30.3909 24.5068 30.3938C29.7552 30.3938 34 26.9189 34 22.6934C34 18.4679 29.7416 15 24.4932 15Z" fill="black"/>
</svg>
