<svg width="48" height="48" viewBox="0 0 48 48" fill="none" xmlns="http://www.w3.org/2000/svg">
<rect x="0.6" y="0.6" width="46.8" height="46.8" rx="23.4" fill="white"/>
<rect x="0.6" y="0.6" width="46.8" height="46.8" rx="23.4" stroke="#EEEEEE" stroke-width="1.2"/>
<path d="M32.1437 29.5861C31.8385 30.2848 31.4772 30.928 31.0586 31.5194C30.4881 32.3255 30.0209 32.8835 29.6609 33.1934C29.1027 33.702 28.5048 33.9625 27.8644 33.9773C27.4047 33.9773 26.8504 33.8477 26.205 33.5847C25.5576 33.323 24.9626 33.1934 24.4186 33.1934C23.848 33.1934 23.2361 33.323 22.5816 33.5847C21.926 33.8477 21.3979 33.9847 20.9942 33.9983C20.3801 34.0242 19.7681 33.7563 19.1571 33.1934C18.7672 32.8564 18.2795 32.2786 17.6952 31.4601C17.0683 30.5861 16.5529 29.5725 16.1492 28.417C15.7168 27.1689 15.5 25.9603 15.5 24.7902C15.5 23.4498 15.7923 22.2938 16.3777 21.3251C16.8377 20.547 17.4498 19.9332 18.2158 19.4826C18.9819 19.032 19.8096 18.8023 20.7009 18.7876C21.1886 18.7876 21.8282 18.9371 22.623 19.231C23.4156 19.5258 23.9245 19.6753 24.1476 19.6753C24.3144 19.6753 24.8798 19.5005 25.8382 19.1519C26.7445 18.8287 27.5094 18.6949 28.136 18.7476C29.834 18.8834 31.1097 19.5468 31.9581 20.7418C30.4395 21.6536 29.6883 22.9307 29.7032 24.5691C29.7169 25.8452 30.1841 26.9071 31.1022 27.7503C31.5183 28.1417 31.983 28.4441 32.5 28.6589C32.3879 28.9812 32.2695 29.2898 32.1437 29.5861ZM28.2494 14.4001C28.2494 15.4003 27.8806 16.3343 27.1456 17.1987C26.2586 18.2263 25.1857 18.8201 24.0223 18.7264C24.0075 18.6064 23.9989 18.4801 23.9989 18.3474C23.9989 17.3872 24.4207 16.3596 25.1698 15.5193C25.5438 15.0939 26.0194 14.7402 26.5962 14.458C27.1718 14.18 27.7162 14.0263 28.2282 14C28.2432 14.1337 28.2494 14.2674 28.2494 14.4001V14.4001Z" fill="black"/>
</svg>
