<svg width="48" height="48" viewBox="0 0 48 48" fill="none" xmlns="http://www.w3.org/2000/svg">
<rect x="0.6" y="0.6" width="46.8" height="46.8" rx="23.4" fill="white"/>
<rect x="0.6" y="0.6" width="46.8" height="46.8" rx="23.4" stroke="#EEEEEE" stroke-width="1.2"/>
<path fill-rule="evenodd" clip-rule="evenodd" d="M33.6 24.2273C33.6 23.5182 33.5364 22.8364 33.4182 22.1818H24V26.05H29.3818C29.15 27.3 28.4455 28.3591 27.3864 29.0682V31.5773H30.6182C32.5091 29.8364 33.6 27.2727 33.6 24.2273Z" fill="#4285F4"/>
<path fill-rule="evenodd" clip-rule="evenodd" d="M24 34C26.7 34 28.9637 33.1045 30.6182 31.5773L27.3864 29.0682C26.4909 29.6682 25.3455 30.0227 24 30.0227C21.3955 30.0227 19.1909 28.2636 18.4046 25.9H15.0636V28.4909C16.7091 31.7591 20.0909 34 24 34Z" fill="#34A853"/>
<path fill-rule="evenodd" clip-rule="evenodd" d="M18.4045 25.9C18.2045 25.3 18.0909 24.6591 18.0909 24C18.0909 23.3409 18.2045 22.7 18.4045 22.1V19.5091H15.0636C14.3864 20.8591 14 22.3864 14 24C14 25.6137 14.3864 27.1409 15.0636 28.4909L18.4045 25.9Z" fill="#FBBC05"/>
<path fill-rule="evenodd" clip-rule="evenodd" d="M24 17.9773C25.4682 17.9773 26.7864 18.4818 27.8227 19.4727L30.6909 16.6045C28.9591 14.9909 26.6955 14 24 14C20.0909 14 16.7091 16.2409 15.0636 19.5091L18.4046 22.1C19.1909 19.7364 21.3955 17.9773 24 17.9773Z" fill="#EA4335"/>
</svg>
